<svg width="16" height="6" viewBox="0 0 16 6" fill="none" xmlns="http://www.w3.org/2000/svg">
<path d="M10.25 3C10.25 4.24375 9.24375 5.25 8 5.25C6.75625 5.25 5.75 4.24375 5.75 3C5.75 1.75625 6.75625 0.75 8 0.75C9.24375 0.75 10.25 1.75625 10.25 3ZM13.5 0.75C12.2563 0.75 11.25 1.75625 11.25 3C11.25 4.24375 12.2563 5.25 13.5 5.25C14.7437 5.25 15.75 4.24375 15.75 3C15.75 1.75625 14.7437 0.75 13.5 0.75ZM2.5 0.75C1.25625 0.75 0.25 1.75625 0.25 3C0.25 4.24375 1.25625 5.25 2.5 5.25C3.74375 5.25 4.75 4.24375 4.75 3C4.75 1.75625 3.74375 0.75 2.5 0.75Z" fill="#6B718C"/>
</svg>
