<svg width="16" height="16" viewBox="0 0 16 16" fill="none" xmlns="http://www.w3.org/2000/svg">
<path d="M14.05 14.5116V3.27907C14.05 1.98829 13.0093 0.95 11.7297 0.95H4.27027C2.99067 0.95 1.95 1.98829 1.95 3.27907V14.5116C1.95 14.806 2.19274 15.05 2.48649 15.05C2.78023 15.05 3.02297 14.806 3.02297 14.5116V3.27907C3.02297 2.58387 3.58439 2.02674 4.27027 2.02674H11.7297C12.4156 2.02674 12.977 2.58387 12.977 3.27907V14.5116C12.977 14.806 13.2198 15.05 13.5135 15.05C13.8073 15.05 14.05 14.806 14.05 14.5116Z" fill="#6B718C" stroke="#6B718C" stroke-width="0.1"/>
<path d="M10.9854 10.1529H5.03727C4.713 10.1529 4.45078 10.4167 4.45078 10.7413C4.45078 11.0659 4.713 11.3297 5.03727 11.3297H10.9854C11.3096 11.3297 11.5719 11.0659 11.5719 10.7413C11.5719 10.4167 11.3096 10.1529 10.9854 10.1529Z" fill="#2680EB" stroke="#2680EB" stroke-width="0.2"/>
<path d="M10.9854 5.3668H5.03727C4.713 5.3668 4.45078 5.63059 4.45078 5.95517C4.45078 6.27975 4.713 6.54354 5.03727 6.54354H10.9854C11.3096 6.54354 11.5719 6.27975 11.5719 5.95517C11.5719 5.63059 11.3096 5.3668 10.9854 5.3668Z" fill="#2680EB" stroke="#2680EB" stroke-width="0.2"/>
</svg>
