<svg width="16" height="16" viewBox="0 0 16 16" fill="none" xmlns="http://www.w3.org/2000/svg">
<path d="M13.6654 10.6667V12.3333C13.6654 12.9522 13.4195 13.5457 12.9819 13.9832C12.5444 14.4208 11.9509 14.6667 11.332 14.6667H4.66536C4.04653 14.6667 3.45303 14.4208 3.01545 13.9832C2.57786 13.5457 2.33203 12.9522 2.33203 12.3333V11.9C2.33344 11.3965 2.53407 10.9141 2.89008 10.5581C3.2461 10.202 3.72855 10.0014 4.23203 10H12.9987C13.1755 10 13.3451 10.0702 13.4701 10.1953C13.5951 10.3203 13.6654 10.4899 13.6654 10.6667Z" fill="#2680EB"/>
<path d="M10.332 1.33301H5.66536C2.9987 1.33301 2.33203 1.99967 2.33203 4.66634V9.71967C2.85622 9.25575 3.53203 8.99965 4.23203 8.99967H12.9987C13.1755 8.99967 13.3451 8.92944 13.4701 8.80441C13.5951 8.67939 13.6654 8.50982 13.6654 8.33301V4.66634C13.6654 1.99967 12.9987 1.33301 10.332 1.33301ZM8.66536 7.16634H5.33203C5.19942 7.16634 5.07225 7.11366 4.97848 7.01989C4.88471 6.92613 4.83203 6.79895 4.83203 6.66634C4.83203 6.53373 4.88471 6.40656 4.97848 6.31279C5.07225 6.21902 5.19942 6.16634 5.33203 6.16634H8.66536C8.79797 6.16634 8.92515 6.21902 9.01892 6.31279C9.11269 6.40656 9.16536 6.53373 9.16536 6.66634C9.16536 6.79895 9.11269 6.92613 9.01892 7.01989C8.92515 7.11366 8.79797 7.16634 8.66536 7.16634ZM10.6654 4.83301H5.33203C5.19942 4.83301 5.07225 4.78033 4.97848 4.68656C4.88471 4.59279 4.83203 4.46562 4.83203 4.33301C4.83203 4.2004 4.88471 4.07322 4.97848 3.97945C5.07225 3.88569 5.19942 3.83301 5.33203 3.83301H10.6654C10.798 3.83301 10.9251 3.88569 11.0189 3.97945C11.1127 4.07322 11.1654 4.2004 11.1654 4.33301C11.1654 4.46562 11.1127 4.59279 11.0189 4.68656C10.9251 4.78033 10.798 4.83301 10.6654 4.83301Z" fill="#2680EB"/>
</svg>
