<svg width="16" height="16" viewBox="0 0 16 16" fill="none" xmlns="http://www.w3.org/2000/svg">
<path d="M6.10611 13.8473V11.8028C6.1061 11.2828 6.53005 10.8602 7.05531 10.8567H8.97936C9.50713 10.8567 9.93497 11.2803 9.93497 11.8028V13.8536C9.93485 14.2951 10.2908 14.656 10.7367 14.6663H12.0194C13.2981 14.6663 14.3346 13.6401 14.3346 12.3742V6.55823C14.3278 6.06023 14.0916 5.59257 13.6933 5.28836L9.30645 1.78988C8.53793 1.18072 7.44544 1.18072 6.67691 1.78988L2.30932 5.29471C1.90947 5.59769 1.67289 6.06612 1.66797 6.56458V12.3742C1.66797 13.6401 2.70455 14.6663 3.98324 14.6663H5.26594C5.72287 14.6663 6.09329 14.2996 6.09329 13.8473" stroke="#6B718C" stroke-width="1.25" stroke-linecap="round" stroke-linejoin="round"/>
<mask id="mask0_9717_175390" style="mask-type:alpha" maskUnits="userSpaceOnUse" x="1" y="0" width="14" height="16">
<path d="M6.10611 13.8483V11.8038C6.1061 11.2837 6.53005 10.8612 7.05531 10.8577H8.97936C9.50713 10.8577 9.93497 11.2813 9.93497 11.8038V13.8546C9.93485 14.2961 10.2908 14.657 10.7367 14.6673H12.0194C13.2981 14.6673 14.3346 13.6411 14.3346 12.3752V6.55921C14.3278 6.0612 14.0916 5.59355 13.6933 5.28934L9.30645 1.79085C8.53793 1.1817 7.44544 1.1817 6.67691 1.79085L2.30932 5.29569C1.90947 5.59867 1.67289 6.06709 1.66797 6.56556V12.3752C1.66797 13.6411 2.70455 14.6673 3.98324 14.6673H5.26594C5.72287 14.6673 6.09329 14.3006 6.09329 13.8483" stroke="#2680EB" stroke-width="1.25" stroke-linecap="round" stroke-linejoin="round"/>
</mask>
<g mask="url(#mask0_9717_175390)">
<rect x="5" y="10" width="6" height="4" fill="#2680EB"/>
</g>
</svg>
