<svg width="125" height="25" viewBox="0 0 125 25" fill="none" xmlns="http://www.w3.org/2000/svg">
<path d="M28.042 3.04396V19.715C28.0254 20.3942 27.7691 21.0456 27.3186 21.5542C26.868 22.0627 26.2522 22.3956 25.58 22.4939L25.1383 22.5472C22.3413 23.0104 19.6083 23.7996 16.9949 24.8985C16.7823 24.9837 16.552 25.0156 16.3242 24.9912C16.0965 24.9669 15.8781 24.8871 15.6883 24.7588C15.4985 24.6306 15.343 24.4578 15.2355 24.2556C15.1279 24.0534 15.0715 23.8278 15.0712 23.5988V4.09134C15.0722 3.83507 15.1427 3.58388 15.2753 3.36459C15.4079 3.1453 15.5976 2.96615 15.8241 2.84627C18.6618 1.36717 21.7395 0.403467 24.914 0H24.9981C25.3978 0 25.7936 0.0787344 26.163 0.231708C26.5323 0.384681 26.8678 0.608898 27.1505 0.891557C27.4331 1.17421 27.6574 1.50978 27.8103 1.87909C27.9633 2.2484 28.042 2.64423 28.042 3.04396Z" fill="#2680EB"/>
<path d="M12.2123 2.84767C9.37464 1.36857 6.29696 0.404869 3.12248 0.001402H3.03836C2.23226 0.00288712 1.45967 0.324053 0.890068 0.894443C0.320466 1.46483 0.000369933 2.23787 0 3.04396V19.715C0.0166572 20.3942 0.272909 21.0456 0.723457 21.5542C1.17401 22.0627 1.78984 22.3956 2.46209 22.4939L2.90375 22.5472C5.70091 23.0102 8.43406 23.7999 11.0472 24.8999C11.2598 24.9849 11.4901 25.0165 11.7177 24.9919C11.9454 24.9673 12.1636 24.8874 12.3533 24.759C12.5429 24.6307 12.6982 24.4578 12.8057 24.2555C12.9131 24.0533 12.9693 23.8278 12.9694 23.5988V4.09134C12.9678 3.83488 12.8965 3.58368 12.7632 3.36462C12.6298 3.14556 12.4394 2.96687 12.2123 2.84767ZM4.20631 7.09604H7.36104C7.63993 7.09604 7.9074 7.20683 8.10461 7.40404C8.30182 7.60125 8.41261 7.86872 8.41261 8.14762C8.41261 8.42651 8.30182 8.69398 8.10461 8.89119C7.9074 9.0884 7.63993 9.19919 7.36104 9.19919H4.20631C3.92741 9.19919 3.65994 9.0884 3.46273 8.89119C3.26552 8.69398 3.15473 8.42651 3.15473 8.14762C3.15473 7.86872 3.26552 7.60125 3.46273 7.40404C3.65994 7.20683 3.92741 7.09604 4.20631 7.09604ZM8.41261 13.4055H4.20631C3.92741 13.4055 3.65994 13.2947 3.46273 13.0975C3.26552 12.9003 3.15473 12.6328 3.15473 12.3539C3.15473 12.075 3.26552 11.8076 3.46273 11.6103C3.65994 11.4131 3.92741 11.3023 4.20631 11.3023H8.41261C8.69151 11.3023 8.95898 11.4131 9.15619 11.6103C9.3534 11.8076 9.46419 12.075 9.46419 12.3539C9.46419 12.6328 9.3534 12.9003 9.15619 13.0975C8.95898 13.2947 8.69151 13.4055 8.41261 13.4055Z" fill="#2680EB"/>
<path d="M39.022 19.18C38.5154 19.18 38.1287 19.04 37.862 18.76C37.5954 18.48 37.462 18.0867 37.462 17.58V6.48C37.462 5.96 37.5954 5.56667 37.862 5.3C38.142 5.03333 38.5354 4.9 39.042 4.9H43.902C45.4754 4.9 46.6887 5.3 47.542 6.1C48.3954 6.88667 48.822 7.98667 48.822 9.4C48.822 10.8133 48.3954 11.92 47.542 12.72C46.6887 13.52 45.4754 13.92 43.902 13.92H40.562V17.58C40.562 18.0867 40.4287 18.48 40.162 18.76C39.9087 19.04 39.5287 19.18 39.022 19.18ZM40.562 11.52H43.382C44.182 11.52 44.7887 11.34 45.202 10.98C45.6287 10.62 45.842 10.0933 45.842 9.4C45.842 8.70667 45.6287 8.18667 45.202 7.84C44.7887 7.49333 44.182 7.32 43.382 7.32H40.562V11.52Z" fill="#2680EB"/>
<path d="M54.6559 19.22C53.4959 19.22 52.4959 19.0133 51.6559 18.6C50.8293 18.1733 50.1893 17.58 49.7359 16.82C49.2959 16.0467 49.0759 15.14 49.0759 14.1C49.0759 13.0867 49.2893 12.2 49.716 11.44C50.1426 10.6667 50.736 10.0667 51.4959 9.64C52.2693 9.2 53.1426 8.98 54.1159 8.98C54.8226 8.98 55.4626 9.1 56.0359 9.34C56.6093 9.56667 57.1026 9.9 57.5159 10.34C57.9293 10.7667 58.2426 11.2933 58.4559 11.92C58.6693 12.5333 58.7759 13.22 58.7759 13.98C58.7759 14.2333 58.6959 14.4267 58.5359 14.56C58.3759 14.68 58.1426 14.74 57.8359 14.74H51.556V13.18H56.5959L56.2759 13.46C56.2759 12.9133 56.1959 12.46 56.0359 12.1C55.8759 11.7267 55.6426 11.4467 55.3359 11.26C55.0426 11.0733 54.6759 10.98 54.236 10.98C53.7426 10.98 53.3226 11.0933 52.9759 11.32C52.6293 11.5467 52.3626 11.8733 52.1759 12.3C51.9893 12.7267 51.896 13.24 51.896 13.84V14C51.896 15.0133 52.1293 15.76 52.5959 16.24C53.0759 16.72 53.7826 16.96 54.716 16.96C55.0359 16.96 55.4026 16.92 55.8159 16.84C56.2293 16.76 56.6159 16.6333 56.9759 16.46C57.2826 16.3133 57.5559 16.2667 57.7959 16.32C58.0359 16.36 58.2226 16.4667 58.3559 16.64C58.4893 16.8133 58.5626 17.0133 58.5759 17.24C58.6026 17.4667 58.5559 17.6933 58.4359 17.92C58.3159 18.1333 58.1159 18.3133 57.8359 18.46C57.3826 18.7133 56.8693 18.9 56.2959 19.02C55.7359 19.1533 55.1893 19.22 54.6559 19.22Z" fill="#2680EB"/>
<path d="M61.6925 19.18C61.1858 19.18 60.7992 19.0467 60.5325 18.78C60.2658 18.5133 60.1325 18.1333 60.1325 17.64V10.54C60.1325 10.0467 60.2592 9.67333 60.5125 9.42C60.7792 9.15333 61.1458 9.02 61.6125 9.02C62.0925 9.02 62.4592 9.15333 62.7125 9.42C62.9658 9.67333 63.0925 10.0467 63.0925 10.54V11.58H62.8925C63.0525 10.78 63.4058 10.16 63.9525 9.72C64.4992 9.28 65.2058 9.03333 66.0725 8.98C66.4058 8.95333 66.6592 9.04 66.8325 9.24C67.0192 9.42667 67.1192 9.74 67.1325 10.18C67.1592 10.5933 67.0725 10.92 66.8725 11.16C66.6858 11.4 66.3658 11.5467 65.9125 11.6L65.4525 11.64C64.6925 11.7067 64.1258 11.9267 63.7525 12.3C63.3925 12.6733 63.2125 13.2133 63.2125 13.92V17.64C63.2125 18.1333 63.0792 18.5133 62.8125 18.78C62.5592 19.0467 62.1858 19.18 61.6925 19.18Z" fill="#2680EB"/>
<path d="M69.4947 22.78C69.0014 22.78 68.6214 22.6467 68.3547 22.38C68.1014 22.1267 67.9747 21.7467 67.9747 21.24V10.54C67.9747 10.0467 68.1014 9.67333 68.3547 9.42C68.6214 9.15333 68.988 9.02 69.4547 9.02C69.948 9.02 70.3214 9.15333 70.5747 9.42C70.828 9.67333 70.9547 10.0467 70.9547 10.54V11.9L70.7347 11.12C70.9347 10.48 71.3347 9.96667 71.9347 9.58C72.548 9.18 73.248 8.98 74.0347 8.98C74.888 8.98 75.6347 9.18667 76.2747 9.6C76.928 10.0133 77.4347 10.6 77.7947 11.36C78.1547 12.12 78.3347 13.0267 78.3347 14.08C78.3347 15.1333 78.1547 16.0467 77.7947 16.82C77.4347 17.5933 76.9347 18.1867 76.2947 18.6C75.6547 19.0133 74.9014 19.22 74.0347 19.22C73.2614 19.22 72.5747 19.0333 71.9747 18.66C71.3747 18.2733 70.968 17.7733 70.7547 17.16H70.9947V21.24C70.9947 21.7467 70.8614 22.1267 70.5947 22.38C70.3414 22.6467 69.9747 22.78 69.4947 22.78ZM73.1347 16.96C73.5614 16.96 73.9347 16.8533 74.2547 16.64C74.588 16.4267 74.8414 16.1133 75.0147 15.7C75.2014 15.2733 75.2947 14.7333 75.2947 14.08C75.2947 13.1067 75.0947 12.3933 74.6947 11.94C74.2947 11.4733 73.7747 11.24 73.1347 11.24C72.708 11.24 72.328 11.34 71.9947 11.54C71.6747 11.74 71.4214 12.0533 71.2347 12.48C71.048 12.8933 70.9547 13.4267 70.9547 14.08C70.9547 15.0533 71.1547 15.78 71.5547 16.26C71.9547 16.7267 72.4814 16.96 73.1347 16.96Z" fill="#2680EB"/>
<path d="M83.4017 19.22C82.5751 19.22 81.8884 19.0667 81.3417 18.76C80.7951 18.4533 80.3884 17.9933 80.1217 17.38C79.8684 16.7533 79.7417 15.98 79.7417 15.06V10.54C79.7417 10.0333 79.8684 9.65333 80.1217 9.4C80.3884 9.14667 80.7617 9.02 81.2417 9.02C81.7217 9.02 82.0951 9.14667 82.3617 9.4C82.6284 9.65333 82.7617 10.0333 82.7617 10.54V15.14C82.7617 15.7267 82.8817 16.1667 83.1217 16.46C83.3617 16.74 83.7417 16.88 84.2617 16.88C84.8351 16.88 85.3017 16.68 85.6617 16.28C86.0351 15.8667 86.2217 15.3267 86.2217 14.66V10.54C86.2217 10.0333 86.3484 9.65333 86.6017 9.4C86.8684 9.14667 87.2417 9.02 87.7217 9.02C88.2151 9.02 88.5884 9.14667 88.8417 9.4C89.1084 9.65333 89.2417 10.0333 89.2417 10.54V17.64C89.2417 18.6667 88.7551 19.18 87.7817 19.18C87.3017 19.18 86.9351 19.0467 86.6817 18.78C86.4284 18.5133 86.3017 18.1333 86.3017 17.64V16.3L86.6017 17.08C86.3084 17.76 85.8884 18.2867 85.3417 18.66C84.7951 19.0333 84.1484 19.22 83.4017 19.22Z" fill="#2680EB"/>
<path d="M94.9386 19.22C94.3519 19.22 93.7453 19.1667 93.1186 19.06C92.5053 18.9533 91.9453 18.7733 91.4386 18.52C91.1719 18.3867 90.9786 18.22 90.8586 18.02C90.7519 17.8067 90.7053 17.5933 90.7186 17.38C90.7319 17.1667 90.7986 16.9733 90.9186 16.8C91.0519 16.6267 91.2186 16.5133 91.4186 16.46C91.6319 16.3933 91.8653 16.4133 92.1186 16.52C92.6653 16.7467 93.1653 16.9067 93.6186 17C94.0719 17.0933 94.5186 17.14 94.9586 17.14C95.5319 17.14 95.9453 17.0533 96.1986 16.88C96.4653 16.6933 96.5986 16.4533 96.5986 16.16C96.5986 15.8933 96.5119 15.6933 96.3386 15.56C96.1653 15.4267 95.9119 15.3333 95.5786 15.28L93.4786 14.9C92.6519 14.7533 92.0119 14.4533 91.5586 14C91.1186 13.5333 90.8986 12.94 90.8986 12.22C90.8986 11.5533 91.0853 10.98 91.4586 10.5C91.8319 10.0067 92.3453 9.63333 92.9986 9.38C93.6653 9.11333 94.4186 8.98 95.2586 8.98C95.8586 8.98 96.4119 9.03333 96.9186 9.14C97.4253 9.24667 97.9119 9.42 98.3786 9.66C98.6186 9.78 98.7853 9.94 98.8786 10.14C98.9853 10.34 99.0186 10.5467 98.9786 10.76C98.9519 10.9733 98.8719 11.1667 98.7386 11.34C98.6053 11.5133 98.4319 11.6267 98.2186 11.68C98.0186 11.7333 97.7853 11.7067 97.5186 11.6C97.0919 11.4 96.6986 11.26 96.3386 11.18C95.9786 11.0867 95.6319 11.04 95.2986 11.04C94.6986 11.04 94.2653 11.14 93.9986 11.34C93.7319 11.5267 93.5986 11.7667 93.5986 12.06C93.5986 12.2867 93.6719 12.48 93.8186 12.64C93.9786 12.7867 94.2186 12.8867 94.5386 12.94L96.6386 13.32C97.5053 13.4667 98.1653 13.76 98.6186 14.2C99.0719 14.6267 99.2986 15.2133 99.2986 15.96C99.2986 16.9733 98.8986 17.7733 98.0986 18.36C97.3119 18.9333 96.2586 19.22 94.9386 19.22Z" fill="#2680EB"/>
<path d="M107.862 19.22C106.276 19.22 104.929 18.92 103.822 18.32C102.729 17.72 101.896 16.88 101.322 15.8C100.749 14.72 100.462 13.4533 100.462 12C100.462 10.88 100.629 9.87333 100.962 8.98C101.309 8.07333 101.802 7.30667 102.442 6.68C103.096 6.04 103.882 5.54667 104.802 5.2C105.736 4.85333 106.789 4.68 107.962 4.68C108.682 4.68 109.402 4.76 110.122 4.92C110.842 5.08 111.536 5.34667 112.202 5.72C112.482 5.88 112.669 6.08667 112.762 6.34C112.869 6.58 112.896 6.84 112.842 7.12C112.802 7.38667 112.696 7.62667 112.522 7.84C112.362 8.04 112.149 8.17333 111.882 8.24C111.629 8.29333 111.336 8.24 111.002 8.08C110.562 7.84 110.096 7.66667 109.602 7.56C109.109 7.44 108.569 7.38 107.982 7.38C107.036 7.38 106.242 7.56 105.602 7.92C104.962 8.26667 104.482 8.78667 104.162 9.48C103.856 10.16 103.702 11 103.702 12C103.702 13.5067 104.062 14.6467 104.782 15.42C105.516 16.1933 106.596 16.58 108.022 16.58C108.502 16.58 108.996 16.5333 109.502 16.44C110.009 16.3467 110.509 16.2133 111.002 16.04L110.422 17.3V13.46H108.622C108.222 13.46 107.916 13.36 107.702 13.16C107.489 12.96 107.382 12.6867 107.382 12.34C107.382 11.98 107.489 11.7067 107.702 11.52C107.916 11.32 108.222 11.22 108.622 11.22H111.762C112.162 11.22 112.462 11.3267 112.662 11.54C112.876 11.7533 112.982 12.06 112.982 12.46V17.1C112.982 17.4467 112.916 17.74 112.782 17.98C112.649 18.22 112.422 18.3933 112.102 18.5C111.502 18.7133 110.829 18.8867 110.082 19.02C109.336 19.1533 108.596 19.22 107.862 19.22Z" fill="#2680EB"/>
<path d="M119.786 19.22C118.733 19.22 117.813 19.0133 117.026 18.6C116.253 18.1867 115.653 17.5933 115.226 16.82C114.799 16.0467 114.586 15.1333 114.586 14.08C114.586 13.2933 114.706 12.5867 114.946 11.96C115.186 11.3333 115.533 10.8 115.986 10.36C116.453 9.90667 117.006 9.56667 117.646 9.34C118.286 9.1 118.999 8.98 119.786 8.98C120.839 8.98 121.753 9.18667 122.526 9.6C123.313 10.0133 123.919 10.6 124.346 11.36C124.786 12.12 125.006 13.0267 125.006 14.08C125.006 14.88 124.879 15.5933 124.626 16.22C124.386 16.8467 124.039 17.3867 123.586 17.84C123.133 18.2933 122.579 18.64 121.926 18.88C121.286 19.1067 120.573 19.22 119.786 19.22ZM119.786 16.96C120.226 16.96 120.606 16.8533 120.926 16.64C121.246 16.4267 121.499 16.1133 121.686 15.7C121.873 15.2733 121.966 14.7333 121.966 14.08C121.966 13.1067 121.766 12.3933 121.366 11.94C120.966 11.4733 120.439 11.24 119.786 11.24C119.359 11.24 118.979 11.34 118.646 11.54C118.326 11.74 118.073 12.0533 117.886 12.48C117.713 12.8933 117.626 13.4267 117.626 14.08C117.626 15.0533 117.826 15.78 118.226 16.26C118.626 16.7267 119.146 16.96 119.786 16.96Z" fill="#2680EB"/>
</svg>
