<svg width="16" height="16" viewBox="0 0 16 16" fill="none" xmlns="http://www.w3.org/2000/svg">
<path d="M14.5808 1.76146C14.399 1.59252 14.184 1.46326 13.9495 1.38189C13.7151 1.30051 13.4662 1.26881 13.2188 1.2888C13.2048 1.2888 13.1522 1.2888 13.1362 1.2888C11.3947 1.50488 9.71439 2.06847 8.19483 2.94613L8.08883 3.0128C8.02828 3.03302 7.96262 3.03185 7.90283 3.00946L7.7435 2.91346C6.22604 2.0457 4.54981 1.49141 2.81417 1.28346C2.56117 1.2595 2.30596 1.28904 2.06513 1.37017C1.8243 1.45129 1.60323 1.58219 1.4163 1.75434C1.22937 1.9265 1.08075 2.13606 0.980116 2.36942C0.879478 2.60277 0.829069 2.85469 0.832166 3.1088V11.1621C0.841373 11.6037 1.00609 12.0279 1.2973 12.36C1.58852 12.692 1.98757 12.9107 2.42417 12.9775L2.6195 13.0041C4.29344 13.2855 5.91514 13.8187 7.4295 14.5855C7.60401 14.6784 7.79913 14.7259 7.99683 14.7235C8.19132 14.7263 8.38325 14.679 8.55417 14.5861C10.0616 13.8179 11.6776 13.2846 13.3462 13.0048L13.5675 12.9781C14.0056 12.9129 14.4065 12.6949 14.6994 12.3625C14.9922 12.0302 15.158 11.605 15.1675 11.1621V3.1148C15.1698 2.86073 15.1188 2.609 15.0178 2.37588C14.9167 2.14277 14.7679 1.93345 14.5808 1.76146ZM2.7535 12.0135L2.5535 11.9861C2.35738 11.9515 2.17895 11.851 2.04777 11.7011C1.9166 11.5513 1.84053 11.3611 1.83217 11.1621V3.1088C1.8302 2.99284 1.85256 2.87775 1.8978 2.77096C1.94304 2.66417 2.01016 2.56805 2.09483 2.4888C2.24762 2.35015 2.44719 2.27442 2.6535 2.2768C2.6795 2.2768 2.7055 2.2768 2.73217 2.2768C4.3123 2.47263 5.83806 2.97925 7.2215 3.76746L7.3815 3.8628C7.4196 3.88174 7.45878 3.89844 7.49883 3.9128V13.5015C5.99379 12.7876 4.39668 12.2868 2.7535 12.0135ZM14.1655 11.1621C14.1573 11.361 14.0813 11.551 13.9502 11.7008C13.8192 11.8505 13.6408 11.951 13.4448 11.9855L13.2195 12.0128C11.5848 12.2846 9.99593 12.7829 8.49883 13.4935V3.9148C8.54122 3.89983 8.58263 3.88224 8.62283 3.86213L8.73217 3.79213C10.1022 3.00599 11.6128 2.4953 13.1788 2.2888C13.1928 2.2888 13.2455 2.2888 13.2608 2.2888C13.3761 2.27585 13.4928 2.28769 13.6031 2.32353C13.7135 2.35936 13.8149 2.41837 13.9005 2.49658C13.9862 2.5748 14.0542 2.67042 14.0999 2.77704C14.1456 2.88366 14.1679 2.99882 14.1655 3.1148V11.1621Z" fill="#6B718C"/>
<path d="M3.16406 5.66211C3.16406 5.5295 3.21674 5.40232 3.31051 5.30856C3.40428 5.21479 3.53145 5.16211 3.66406 5.16211H5.16406C5.29667 5.16211 5.42385 5.21479 5.51762 5.30856C5.61138 5.40232 5.66406 5.5295 5.66406 5.66211C5.66406 5.79472 5.61138 5.92189 5.51762 6.01566C5.42385 6.10943 5.29667 6.16211 5.16406 6.16211H3.66406C3.53145 6.16211 3.40428 6.10943 3.31051 6.01566C3.21674 5.92189 3.16406 5.79472 3.16406 5.66211ZM5.66406 7.16211H3.66406C3.53145 7.16211 3.40428 7.21479 3.31051 7.30856C3.21674 7.40232 3.16406 7.5295 3.16406 7.66211C3.16406 7.79472 3.21674 7.92189 3.31051 8.01566C3.40428 8.10943 3.53145 8.16211 3.66406 8.16211H5.66406C5.79667 8.16211 5.92385 8.10943 6.01762 8.01566C6.11138 7.92189 6.16406 7.79472 6.16406 7.66211C6.16406 7.5295 6.11138 7.40232 6.01762 7.30856C5.92385 7.21479 5.79667 7.16211 5.66406 7.16211Z" fill="#2680EB"/>
</svg>
