<svg width="16" height="16" viewBox="0 0 16 16" fill="none" xmlns="http://www.w3.org/2000/svg">
<path d="M7.72049 8.03766C9.4797 8.03766 10.9058 6.61154 10.9058 4.85233C10.9058 3.09311 9.4797 1.66699 7.72049 1.66699C5.96128 1.66699 4.53516 3.09311 4.53516 4.85233C4.53516 6.61154 5.96128 8.03766 7.72049 8.03766Z" stroke="#2680EB" stroke-width="1.25" stroke-linecap="round" stroke-linejoin="round"/>
<path fill-rule="evenodd" clip-rule="evenodd" d="M2.66798 12.4677C2.66713 12.2438 2.71721 12.0226 2.81444 11.8209C3.11955 11.2106 3.97997 10.8872 4.69392 10.7408C5.20883 10.6309 5.73085 10.5575 6.25609 10.5211C7.22854 10.4357 8.2066 10.4357 9.17905 10.5211C9.70425 10.5579 10.2262 10.6313 10.7412 10.7408C11.4552 10.8872 12.3156 11.1801 12.6207 11.8209C12.8162 12.2321 12.8162 12.7094 12.6207 13.1206C12.3156 13.7614 11.4552 14.0543 10.7412 14.1946C10.2269 14.3091 9.70471 14.3845 9.17905 14.4204C8.38756 14.4875 7.59237 14.4997 6.79919 14.457C6.61612 14.457 6.43916 14.457 6.25609 14.4204C5.7324 14.385 5.21219 14.3095 4.70003 14.1946C3.97997 14.0543 3.12566 13.7614 2.81444 13.1206C2.71771 12.9166 2.66768 12.6935 2.66798 12.4677Z" stroke="#6B718C" stroke-width="1.25" stroke-linecap="round" stroke-linejoin="round"/>
</svg>
