<svg width="16" height="16" viewBox="0 0 16 16" fill="none" xmlns="http://www.w3.org/2000/svg">
<path d="M8 5.5C7.50555 5.5 7.0222 5.64662 6.61108 5.92133C6.19995 6.19603 5.87952 6.58648 5.6903 7.04329C5.50108 7.50011 5.45157 8.00277 5.54804 8.48773C5.6445 8.97268 5.8826 9.41814 6.23223 9.76777C6.58187 10.1174 7.02732 10.3555 7.51228 10.452C7.99723 10.5484 8.49989 10.4989 8.95671 10.3097C9.41352 10.1205 9.80397 9.80005 10.0787 9.38893C10.3534 8.9778 10.5 8.49445 10.5 8C10.4991 7.33723 10.2354 6.70186 9.76679 6.23321C9.29814 5.76456 8.66277 5.50088 8 5.5ZM8 9.5C7.70333 9.5 7.41332 9.41203 7.16665 9.2472C6.91997 9.08238 6.72771 8.84811 6.61418 8.57402C6.50065 8.29994 6.47095 7.99834 6.52882 7.70736C6.5867 7.41639 6.72956 7.14912 6.93934 6.93934C7.14912 6.72956 7.41639 6.5867 7.70737 6.52882C7.99834 6.47094 8.29994 6.50065 8.57403 6.61418C8.84812 6.72771 9.08238 6.91997 9.24721 7.16664C9.41203 7.41332 9.5 7.70333 9.5 8C9.49947 8.39766 9.34127 8.77889 9.06008 9.06008C8.77889 9.34127 8.39766 9.49947 8 9.5Z" fill="#2680EB"/>
<path d="M13.3987 5.64903C13.2514 5.66849 13.1016 5.65054 12.963 5.59683C12.8245 5.54311 12.7017 5.45537 12.606 5.3417C12.5558 5.20167 12.5416 5.05122 12.5649 4.90428C12.5883 4.75734 12.6482 4.61865 12.7394 4.50104C12.9733 4.09497 13.0364 3.61262 12.9147 3.16006C12.7931 2.70749 12.4967 2.32176 12.0907 2.0877L10.9454 1.4297C10.7633 1.32103 10.5611 1.25025 10.351 1.22161C10.1409 1.19297 9.92722 1.20706 9.7227 1.26304C9.30898 1.37189 8.95534 1.64042 8.73936 2.0097L8.6647 2.13904C8.27403 2.8177 7.73136 2.8177 7.33936 2.13904L7.26203 2.0057C7.04539 1.63755 6.69148 1.37044 6.27803 1.26304C6.07454 1.20724 5.8619 1.19295 5.65277 1.221C5.44364 1.24906 5.24229 1.3189 5.0607 1.42637L3.91003 2.0877C3.50404 2.32176 3.20764 2.70749 3.08599 3.16006C2.96435 3.61262 3.02743 4.09497 3.26136 4.50104C3.35249 4.61865 3.41247 4.75734 3.43578 4.90428C3.45909 5.05122 3.44496 5.20167 3.3947 5.3417C3.29853 5.4557 3.17519 5.54361 3.03606 5.59733C2.89694 5.65104 2.74652 5.66883 2.5987 5.64903C2.13061 5.64903 1.68166 5.8348 1.35042 6.16554C1.01918 6.49627 0.832738 6.94495 0.832031 7.41304V8.5877C0.832914 9.05573 1.01941 9.50431 1.35061 9.83501C1.68181 10.1657 2.13066 10.3515 2.5987 10.3517C2.746 10.3322 2.89583 10.3502 3.03437 10.4039C3.1729 10.4576 3.29568 10.5454 3.39136 10.659C3.44162 10.7991 3.45575 10.9495 3.43245 11.0965C3.40914 11.2434 3.34915 11.3821 3.25803 11.4997C3.0241 11.9058 2.96102 12.3881 3.08266 12.8407C3.2043 13.2932 3.50071 13.679 3.9067 13.913L5.05203 14.571C5.23427 14.6793 5.43641 14.7499 5.64644 14.7785C5.85648 14.8071 6.07013 14.7933 6.2747 14.7377C6.68842 14.6288 7.04206 14.3603 7.25803 13.991L7.3327 13.8577C7.72337 13.179 8.26603 13.1784 8.65803 13.8577L8.73536 13.991C8.87941 14.2342 9.08419 14.4359 9.32961 14.5761C9.57504 14.7163 9.8527 14.7904 10.1354 14.791C10.4168 14.7914 10.6932 14.7159 10.9354 14.5724L12.086 13.911C12.492 13.677 12.7884 13.2912 12.9101 12.8387C13.0317 12.3861 12.9686 11.9038 12.7347 11.4977C12.6436 11.3801 12.5836 11.2414 12.5603 11.0945C12.537 10.9475 12.5511 10.7971 12.6014 10.657C12.6975 10.5431 12.8207 10.4553 12.9597 10.4016C13.0987 10.3479 13.249 10.33 13.3967 10.3497C13.8644 10.3492 14.3129 10.1632 14.6437 9.83249C14.9745 9.50181 15.1607 9.05344 15.1614 8.5857V7.41304C15.1605 6.94569 14.9745 6.49773 14.6442 6.16714C14.3139 5.83656 13.866 5.65027 13.3987 5.64903ZM14.166 8.5877C14.1655 8.79074 14.0844 8.98527 13.9405 9.12852C13.7966 9.27178 13.6017 9.35206 13.3987 9.3517C13.0754 9.32684 12.7513 9.3886 12.4597 9.53061C12.1682 9.67263 11.9198 9.88978 11.74 10.1597C11.5966 10.4505 11.5334 10.7744 11.5568 11.0978C11.5803 11.4212 11.6895 11.7326 11.8734 11.9997C11.974 12.1759 12.0009 12.3847 11.9482 12.5807C11.8955 12.7766 11.7675 12.9438 11.592 13.0457L10.4354 13.7124C10.367 13.7522 10.2915 13.7781 10.2132 13.7886C10.1348 13.7991 10.0551 13.7941 9.9787 13.7737C9.82205 13.7328 9.68774 13.632 9.6047 13.493L9.53003 13.3644C9.39026 13.0708 9.17463 12.8198 8.90542 12.6375C8.63621 12.4551 8.32319 12.3479 7.9987 12.327C7.67497 12.3482 7.36272 12.4552 7.09406 12.6371C6.82539 12.8189 6.61 13.069 6.47003 13.3617L6.39803 13.4864C6.31506 13.6275 6.17966 13.73 6.02137 13.7717C5.94371 13.7921 5.86274 13.7967 5.78327 13.7853C5.7038 13.7738 5.62743 13.7465 5.5587 13.705L4.40803 13.043C4.23347 12.9411 4.10606 12.7746 4.05341 12.5794C4.00075 12.3843 4.02708 12.1762 4.1267 12.0004C4.31054 11.7332 4.41981 11.4219 4.44324 11.0985C4.46668 10.775 4.40344 10.4512 4.26003 10.1604C4.08 9.89006 3.83117 9.67263 3.53915 9.53049C3.24713 9.38835 2.9225 9.32664 2.5987 9.3517C2.49819 9.35188 2.39864 9.33225 2.30572 9.29395C2.21279 9.25566 2.12833 9.19943 2.05713 9.12848C1.98594 9.05754 1.92942 8.97327 1.8908 8.88048C1.85218 8.78769 1.83221 8.68821 1.83203 8.5877V7.41304C1.83256 7.21011 1.91359 7.01569 2.05733 6.87245C2.20107 6.72921 2.39577 6.64886 2.5987 6.64904C2.92214 6.67402 3.24639 6.61232 3.53805 6.4703C3.82972 6.32827 4.07824 6.11106 4.25803 5.84103C4.40185 5.55028 4.4655 5.22642 4.44242 4.90286C4.41933 4.5793 4.31034 4.26776 4.1267 4.00037C4.02604 3.82418 3.99912 3.61535 4.05182 3.4194C4.10453 3.22345 4.23257 3.05629 4.40803 2.95437L5.5647 2.2877C5.63275 2.24722 5.70829 2.22092 5.78677 2.21038C5.86524 2.19984 5.94504 2.20528 6.02137 2.22637C6.17801 2.26726 6.31232 2.36806 6.39536 2.50704L6.47003 2.63637C6.60967 2.92946 6.82493 3.18002 7.09363 3.36223C7.36232 3.54445 7.67474 3.65174 7.9987 3.67304C8.32238 3.65199 8.63461 3.5451 8.90328 3.36337C9.17195 3.18164 9.38736 2.93163 9.52736 2.63904L9.59937 2.51437C9.68233 2.37326 9.81773 2.27069 9.97603 2.22904C10.0537 2.20862 10.1347 2.20401 10.2141 2.21546C10.2936 2.22691 10.37 2.2542 10.4387 2.2957L11.5894 2.9577C11.7639 3.0596 11.8913 3.22616 11.944 3.42131C11.9966 3.61645 11.9703 3.82449 11.8707 4.00037C11.6869 4.2675 11.5776 4.57883 11.5542 4.90226C11.5307 5.22569 11.594 5.54952 11.7374 5.84037C11.9174 6.11068 12.1662 6.3281 12.4582 6.47025C12.7503 6.61239 13.0749 6.6741 13.3987 6.64904C13.6013 6.64921 13.7956 6.72974 13.939 6.87296C14.0823 7.01618 14.163 7.2104 14.1634 7.41304L14.166 8.5877Z" fill="#6B718C"/>
</svg>
