<svg width="16" height="16" viewBox="0 0 16 16" fill="none" xmlns="http://www.w3.org/2000/svg">
<path d="M10.332 0.833008H5.66536C2.72736 0.833008 1.83203 1.72834 1.83203 4.66634V12.333C1.83291 13.0842 2.13171 13.8043 2.66287 14.3355C3.19403 14.8667 3.91419 15.1655 4.66536 15.1663H11.332C12.0832 15.1655 12.8034 14.8667 13.3345 14.3355C13.8657 13.8043 14.1645 13.0842 14.1654 12.333V4.66634C14.1654 1.72834 13.27 0.833008 10.332 0.833008ZM5.66536 1.83301H10.332C12.7154 1.83301 13.1654 2.28301 13.1654 4.66634V9.49967H4.23336C3.72975 9.5008 3.23951 9.66188 2.83336 9.95967V4.66634C2.83203 2.28301 3.28203 1.83301 5.66536 1.83301ZM11.332 14.1663H4.66536C4.17924 14.166 3.71313 13.9727 3.36939 13.629C3.02565 13.2852 2.83238 12.8191 2.83203 12.333V11.901C2.83203 11.5297 2.97953 11.1736 3.24208 10.9111C3.50463 10.6485 3.86073 10.501 4.23203 10.501H13.1654V11.333C13.1654 11.415 13.1654 11.4963 13.16 11.5783C13.16 11.5923 13.1654 11.6043 13.1654 11.6183V12.333C13.165 12.8191 12.9717 13.2852 12.628 13.629C12.2843 13.9727 11.8182 14.166 11.332 14.1663Z" fill="#6B718C"/>
<path d="M11.1654 4.66602C11.1654 4.79862 11.1127 4.9258 11.0189 5.01957C10.9251 5.11334 10.798 5.16602 10.6654 5.16602H5.33203C5.19942 5.16602 5.07225 5.11334 4.97848 5.01957C4.88471 4.9258 4.83203 4.79862 4.83203 4.66602C4.83203 4.53341 4.88471 4.40623 4.97848 4.31246C5.07225 4.21869 5.19942 4.16602 5.33203 4.16602H10.6654C10.798 4.16602 10.9251 4.21869 11.0189 4.31246C11.1127 4.40623 11.1654 4.53341 11.1654 4.66602ZM8.66536 6.49935H5.33203C5.19942 6.49935 5.07225 6.55203 4.97848 6.6458C4.88471 6.73956 4.83203 6.86674 4.83203 6.99935C4.83203 7.13196 4.88471 7.25913 4.97848 7.3529C5.07225 7.44667 5.19942 7.49935 5.33203 7.49935H8.66536C8.79797 7.49935 8.92515 7.44667 9.01892 7.3529C9.11269 7.25913 9.16536 7.13196 9.16536 6.99935C9.16536 6.86674 9.11269 6.73956 9.01892 6.6458C8.92515 6.55203 8.79797 6.49935 8.66536 6.49935Z" fill="#2680EB"/>
</svg>
