<svg width="18" height="10" viewBox="0 0 18 10" fill="none" xmlns="http://www.w3.org/2000/svg">
<path d="M4.388 9.608C3.756 9.608 3.168 9.536 2.624 9.392C2.08 9.24 1.636 9.028 1.292 8.756C1.172 8.668 1.084 8.576 1.028 8.48C0.98 8.376 0.956 8.248 0.956 8.096C0.956 7.896 1.016 7.72 1.136 7.568C1.264 7.416 1.408 7.34 1.568 7.34C1.656 7.34 1.74 7.356 1.82 7.388C1.908 7.412 2.012 7.46 2.132 7.532C2.476 7.748 2.824 7.908 3.176 8.012C3.528 8.108 3.916 8.156 4.34 8.156C4.868 8.156 5.272 8.068 5.552 7.892C5.832 7.716 5.972 7.464 5.972 7.136C5.972 6.888 5.84 6.688 5.576 6.536C5.32 6.384 4.86 6.24 4.196 6.104C3.452 5.952 2.856 5.768 2.408 5.552C1.968 5.336 1.644 5.068 1.436 4.748C1.236 4.428 1.136 4.04 1.136 3.584C1.136 3.08 1.28 2.628 1.568 2.228C1.864 1.82 2.268 1.504 2.78 1.28C3.3 1.048 3.884 0.931999 4.532 0.931999C5.668 0.931999 6.604 1.216 7.34 1.784C7.46 1.88 7.544 1.98 7.592 2.084C7.648 2.18 7.676 2.3 7.676 2.444C7.676 2.644 7.612 2.82 7.484 2.972C7.364 3.124 7.224 3.2 7.064 3.2C6.976 3.2 6.892 3.188 6.812 3.164C6.74 3.14 6.636 3.088 6.5 3.008C6.172 2.8 5.868 2.644 5.588 2.54C5.316 2.436 4.968 2.384 4.544 2.384C4.056 2.384 3.672 2.48 3.392 2.672C3.112 2.856 2.972 3.112 2.972 3.44C2.972 3.632 3.024 3.792 3.128 3.92C3.24 4.04 3.42 4.148 3.668 4.244C3.924 4.34 4.284 4.44 4.748 4.544C5.836 4.784 6.616 5.092 7.088 5.468C7.568 5.844 7.808 6.36 7.808 7.016C7.808 7.528 7.664 7.98 7.376 8.372C7.096 8.764 6.696 9.068 6.176 9.284C5.664 9.5 5.068 9.608 4.388 9.608ZM16.9232 8.36C16.9872 8.504 17.0192 8.632 17.0192 8.744C17.0192 8.968 16.9272 9.16 16.7432 9.32C16.5672 9.472 16.3632 9.548 16.1312 9.548C15.9792 9.548 15.8352 9.508 15.6992 9.428C15.5632 9.34 15.4592 9.212 15.3872 9.044L14.7512 7.628H10.6832L10.0472 9.044C9.97522 9.212 9.87122 9.34 9.73522 9.428C9.60722 9.508 9.46322 9.548 9.30322 9.548C9.07122 9.548 8.86322 9.472 8.67922 9.32C8.49522 9.16 8.40322 8.968 8.40322 8.744C8.40322 8.632 8.43522 8.504 8.49922 8.36L11.7392 1.556C11.8272 1.364 11.9592 1.22 12.1352 1.124C12.3112 1.02 12.4992 0.968 12.6992 0.968C12.9072 0.968 13.0992 1.02 13.2752 1.124C13.4512 1.228 13.5872 1.372 13.6832 1.556L16.9232 8.36ZM14.1152 6.212L12.7232 3.092L11.3192 6.212H14.1152Z" fill="#2680EB"/>
</svg>
